<?xml version="1.0" encoding="UTF-8"?><svg id="Layer_2" xmlns="http://www.w3.org/2000/svg" viewBox="0 0 310.97 255.74"><defs><style>.cls-1{fill:#555;stroke-width:0px;}</style></defs><polyline class="cls-1" points="72.7 242.81 251.22 242.81 251.22 255.74 72.7 255.74"/><polyline class="cls-1" points="85.74 13.19 187.37 13.19 200.56 0 72.7 0 72.7 158.37 85.74 158.37"/><polyline class="cls-1" points="200.56 63.56 200.56 0 187.67 0 187.67 63.56"/><polygon class="cls-1" points="200.56 0 251.22 50.67 233.89 50.67 200.7 17.48 183.37 .15 200.56 0"/><polygon class="cls-1" points="200.56 50.67 251.22 50.67 251.22 158.37 238.93 158.37 238.93 63.56 198.33 63.56 200.56 50.67"/><path class="cls-1" d="m34.69,196.5h25.2v32.51h-8.4l-1.26-7.56-.08.08c-1.12,1.29-2.16,2.41-3.11,3.36-.95.95-2.14,1.86-3.57,2.73-1.43.87-3.15,1.58-5.17,2.14-2.02.56-4.31.84-6.89.84-3.7,0-7.21-.67-10.54-2.02-3.33-1.34-6.29-3.33-8.86-5.96-2.58-2.63-4.61-5.95-6.09-9.95-1.48-4-2.23-8.55-2.23-13.65,0-4.2.59-8.2,1.76-12.01,1.18-3.81,3-7.22,5.46-10.25,2.46-3.02,5.56-5.39,9.28-7.1,3.72-1.71,8.05-2.56,12.98-2.56,4.37,0,8.22.63,11.55,1.89,3.33,1.26,6.06,2.91,8.19,4.96,2.13,2.04,3.74,4.24,4.83,6.59,1.09,2.35,1.72,4.65,1.89,6.89h-12.6c0-.67-.28-1.55-.84-2.65-.56-1.09-1.4-2.2-2.52-3.32-1.12-1.12-2.52-2.06-4.2-2.81-1.68-.76-3.56-1.13-5.63-1.13-2.35,0-4.55.42-6.59,1.26-2.04.84-3.88,2.13-5.5,3.86-1.62,1.74-2.9,3.99-3.82,6.76-.92,2.77-1.39,6.04-1.39,9.79s.49,7.24,1.47,9.95c.98,2.72,2.31,4.87,3.99,6.47,1.68,1.6,3.54,2.72,5.59,3.36,2.04.64,4.21.97,6.51.97,1.01,0,2.17-.15,3.49-.46,1.32-.31,2.72-.91,4.2-1.81,1.48-.9,2.86-2.24,4.12-4.03,1.26-1.79,2.2-4.12,2.81-6.97h-14.03v-10.16Z"/><path class="cls-1" d="m71.74,168.69h30.49c3.75,0,6.9.6,9.45,1.81,2.55,1.21,4.51,2.7,5.88,4.49,1.37,1.79,2.32,3.64,2.86,5.54.53,1.9.8,3.64.8,5.21,0,3.36-.83,6.34-2.48,8.95-1.65,2.6-3.94,4.41-6.85,5.42,1.4.62,2.55,1.23,3.44,1.85.89.62,1.67,1.44,2.31,2.48.64,1.04,1.12,2.44,1.43,4.2.31,1.76.46,4.02.46,6.76,0,4.76.13,7.83.38,9.2.25,1.37,1.02,2.31,2.31,2.81v1.6h-13.95c-.45-1.57-.79-3.25-1.01-5.04-.22-1.79-.34-4.17-.34-7.14,0-2.35-.08-4.2-.25-5.54-.17-1.34-.56-2.45-1.18-3.32-.62-.87-1.58-1.51-2.9-1.93s-3.15-.63-5.5-.63h-13.02v23.6h-12.35v-60.31Zm27.13,26.54c3.36,0,5.82-.64,7.39-1.93,1.57-1.29,2.35-3.39,2.35-6.3,0-.95-.12-1.86-.38-2.73-.25-.87-.7-1.71-1.34-2.52-.64-.81-1.55-1.46-2.73-1.93-1.18-.48-2.63-.71-4.37-.71h-15.71v16.13h14.78Z"/><path class="cls-1" d="m131.17,182.47c2.1-4.31,4.72-7.57,7.85-9.79,3.14-2.21,6.26-3.7,9.37-4.45,3.11-.76,5.98-1.13,8.61-1.13s5.5.38,8.61,1.13c3.11.76,6.23,2.24,9.37,4.45,3.13,2.21,5.75,5.47,7.85,9.79,2.1,4.31,3.15,9.77,3.15,16.38s-1.05,12.07-3.15,16.38c-2.1,4.31-4.72,7.56-7.85,9.74-3.14,2.18-6.26,3.67-9.37,4.45-3.11.78-5.98,1.18-8.61,1.18s-5.5-.39-8.61-1.18c-3.11-.78-6.23-2.27-9.37-4.45-3.14-2.18-5.75-5.43-7.85-9.74-2.1-4.31-3.15-9.77-3.15-16.38s1.05-12.07,3.15-16.38Zm10.96,26.5c1.01,2.77,2.32,4.96,3.95,6.55,1.62,1.6,3.39,2.73,5.29,3.4,1.9.67,3.78,1.01,5.63,1.01s3.79-.34,5.67-1.01c1.88-.67,3.63-1.81,5.25-3.4,1.62-1.6,2.94-3.78,3.95-6.55,1.01-2.77,1.51-6.14,1.51-10.12s-.5-7.36-1.51-10.16c-1.01-2.8-2.32-4.98-3.95-6.55-1.62-1.57-3.37-2.69-5.25-3.36-1.88-.67-3.77-1.01-5.67-1.01s-3.72.34-5.63,1.01c-1.9.67-3.67,1.79-5.29,3.36-1.62,1.57-2.94,3.75-3.95,6.55-1.01,2.8-1.51,6.19-1.51,10.16s.5,7.35,1.51,10.12Z"/><path class="cls-1" d="m253.93,229h-11.76v-50.4h-.17l-11.26,50.4h-12.35l-11-50.4h-.17v50.4h-11.76v-60.31h18.4l10.92,47.54h.17l10.75-47.54h18.23v60.31Z"/><path class="cls-1" d="m278.63,218.08h29.99v10.92h-42.59v-60.31h12.6v49.39Z"/><polygon class="cls-1" points="233.89 50.67 250.19 66.96 250.19 50.67 200.04 .52 183.37 .52 233.89 50.67"/></svg>