<?xml version="1.0" encoding="utf-8"?>
<svg width="16" height="16" viewBox="0 0 16 16" fill="none" xmlns="http://www.w3.org/2000/svg">
<rect x="2.5" y="2.5" width="11" height="11" rx="1.5" fill="#F5F8FE" stroke="#208A3C"/>
<g transform="scale(0.75) translate(2.5, 2.5)">
	<path class="st1" d="M3.08,7.47C3.2,5.09,3.49,3.33,7.89,3.33c2.36,0.01,3.99,0.4,4.62,2.02c0.14,0.37,0.12,0.76,0.14,1.13H9.89
		c-0.04-0.95-0.14-1.69-2-1.74c-2.16,0-1.98,1.63-1.98,2.35v2.59c0,0.77,0.1,2.03,1.98,2.03c1.57,0,2.08-1.06,2.02-2.47h-1.9V7.87
		h4.58v5.02h-2.06v-1.07h-0.04c-0.55,0.97-1.59,1.24-2.59,1.29c-4.52,0-4.81-1.82-4.81-4.31V7.47z" fill="#208A3C"/>
</g>
</svg>
