<svg width="16" height="16" xmlns="http://www.w3.org/2000/svg" fill="none">

 <g>
  <title>Layer 1</title>
  <rect id="svg_1" stroke="#57965c" fill="#253627" rx="1.5" height="11" width="11" y="2.32456" x="2.5"/>
  <g id="svg_2" transform="scale(0.5) translate(8, 8)">
   <path id="svg_3" fill="#57965c" d="m12.5355,4.46447c-1.9526,-1.95263 -5.11841,-1.95263 -7.07103,0c-1.95263,1.95262 -1.95263,5.11844 0,7.07103c1.6355,1.6355 4.12405,1.9015 6.03553,0.7964l0,-2.3319l-2.5,0l0,-3l5.5,0l0,6.8552l-0.5755,0.4504c-3.1403,2.4576 -7.69061,2.242 -10.58135,-0.6487c-3.1242,-3.1242 -3.1242,-8.18956 0,-11.31375c3.12419,-3.1242 8.18955,-3.1242 11.31375,0l-2.1214,2.12132z"/>
  </g>
 </g>
</svg>